<svg version="1.1" viewBox="0.0 0.0 960.0 720.0" fill="none" stroke="none" stroke-linecap="square" stroke-miterlimit="10" xmlns:xlink="http://www.w3.org/1999/xlink" xmlns="http://www.w3.org/2000/svg"><clipPath id="p.0"><path d="m0 0l960.0 0l0 720.0l-960.0 0l0 -720.0z" clip-rule="nonzero"/></clipPath><g clip-path="url(#p.0)"><path fill="#000000" fill-opacity="0.0" d="m0 0l960.0 0l0 720.0l-960.0 0z" fill-rule="evenodd"/><path fill="#000000" fill-opacity="0.0" d="m193.8924 158.42258l65.00787 0l0 70.92912l-65.00787 0z" fill-rule="evenodd"/><path fill="#434343" d="m213.2049 206.51007q-0.59375 -2.0 -2.703125 -8.796875q-2.09375 -6.8125 -4.203125 -13.328125q-0.359375 -1.15625 -1.25 -1.703125q-0.875 -0.546875 -2.4375 -0.578125l-0.078125 -0.15625l0.28125 -1.71875q0.515625 0 1.9375 0.0625q1.421875 0.046875 2.703125 0.046875q1.3125 0 3.328125 -0.171875q2.03125 -0.1875 2.671875 -0.265625l0.125 0.28125l-0.171875 1.5625q-2.15625 0.15625 -2.859375 0.484375q-0.703125 0.3125 -0.703125 1.1875q0 0.8125 2.125 8.3125q2.125 7.5 2.921875 10.21875l0.359375 0q6.640625 -17.125 6.640625 -18.40625q0 -0.84375 -0.640625 -1.21875q-0.640625 -0.375 -2.125 -0.375l-2.078125 0l-0.078125 -0.171875l0.234375 -1.71875q0.53125 0.046875 2.3125 0.171875q1.78125 0.109375 3.421875 0.109375q1.46875 0 2.734375 -0.03125q1.265625 -0.046875 1.65625 -0.078125l-0.3125 1.875q-1.25 0.03125 -1.734375 0.40625q-0.46875 0.359375 -0.90625 1.515625l-8.609375 21.59375l-2.5625 0.890625zm17.040604 -2.125q1.5625 -0.25 2.140625 -0.9375q0.59375 -0.703125 0.59375 -2.421875l0.03125 -16.796875q0 -1.28125 -0.296875 -1.71875q-0.296875 -0.453125 -1.1875 -0.453125q-0.390625 0 -0.796875 0.046875q-0.390625 0.03125 -0.5625 0.03125l-0.078125 -0.15625l0.28125 -1.75q0.484375 0.03125 1.796875 0.078125q1.328125 0.03125 2.6875 0.03125q1.078125 0 2.453125 -0.140625q1.390625 -0.140625 1.828125 -0.21875l-0.15625 1.796875q-1.328125 0.171875 -1.828125 0.53125q-0.5 0.359375 -0.609375 0.84375q-0.09375 0.46875 -0.203125 2.359375q-0.25 3.390625 -0.375 7.75q-0.109375 4.359375 -0.109375 7.6875q0 1.4375 0.234375 2.0625q0.25 0.609375 0.90625 0.8125q0.65625 0.203125 2.25 0.203125q2.453125 0 3.59375 -0.390625q1.140625 -0.40625 1.71875 -1.5625q0.578125 -1.171875 1.046875 -3.734375l1.765625 -0.203125l0.125 0.203125q-0.125 0.640625 -0.515625 2.890625q-0.375 2.234375 -0.640625 4.71875l-0.203125 0.234375q-1.15625 -0.078125 -4.78125 -0.21875q-3.625 -0.140625 -5.984375 -0.140625q-1.875 0 -3.421875 0.15625q-1.53125 0.15625 -1.9375 0.25l0.234375 -1.84375z" fill-rule="nonzero"/><path fill="#000000" fill-opacity="0.0" d="m266.60104 186.80052l65.00787 0l0 14.173233l-65.00787 0z" fill-rule="evenodd"/><path fill="#d9d9d9" d="m276.66354 204.77376l0 -9.546875l1.265625 0l0 3.921875l4.953125 0l0 -3.921875l1.265625 0l0 9.546875l-1.265625 0l0 -4.5l-4.953125 0l0 4.5l-1.265625 0zm12.2500305 0l3.65625 -9.546875l1.359375 0l3.90625 9.546875l-1.4375 0l-1.109375 -2.890625l-3.984375 0l-1.046875 2.890625l-1.34375 0zm2.75 -3.921875l3.234375 0l-1.0 -2.640625q-0.453125 -1.203125 -0.671875 -1.96875q-0.1875 0.90625 -0.515625 1.8125l-1.046875 2.796875zm11.108368 3.921875l0 -9.546875l1.25 0l0 9.546875l-1.25 0zm7.2028503 0l0 -9.546875l4.234375 0q1.265625 0 1.921875 0.265625q0.671875 0.25 1.0625 0.90625q0.40625 0.65625 0.40625 1.4375q0 1.015625 -0.65625 1.71875q-0.65625 0.6875 -2.03125 0.875q0.5 0.25 0.765625 0.484375q0.546875 0.5 1.046875 1.265625l1.65625 2.59375l-1.578125 0l-1.265625 -1.984375q-0.5625 -0.859375 -0.921875 -1.3125q-0.34375 -0.453125 -0.640625 -0.640625q-0.28125 -0.1875 -0.5625 -0.25q-0.21875 -0.046875 -0.703125 -0.046875l-1.46875 0l0 4.234375l-1.265625 0zm1.265625 -5.328125l2.71875 0q0.859375 0 1.34375 -0.171875q0.484375 -0.1875 0.734375 -0.578125q0.265625 -0.390625 0.265625 -0.859375q0 -0.671875 -0.5 -1.109375q-0.484375 -0.4375 -1.546875 -0.4375l-3.015625 0l0 3.15625z" fill-rule="nonzero"/><path fill="#000000" fill-opacity="0.0" d="m258.91602 206.89502l135.9685 0l0 34.29921l-135.9685 0z" fill-rule="evenodd"/><path fill="#434343" d="m274.50977 230.66127q0 0.15625 -0.015625 0.265625q-0.015625 0.109375 -0.0625 0.1875q-0.03125 0.0625 -0.078125 0.109375q-0.046875 0.03125 -0.125 0.03125l-4.46875 0q-0.171875 0 -0.34375 -0.125q-0.15625 -0.125 -0.15625 -0.421875l0 -9.359375q0 -0.0625 0.03125 -0.109375q0.03125 -0.046875 0.109375 -0.078125q0.078125 -0.03125 0.203125 -0.046875q0.140625 -0.015625 0.328125 -0.015625q0.203125 0 0.328125 0.015625q0.125 0.015625 0.203125 0.046875q0.078125 0.03125 0.109375 0.078125q0.03125 0.046875 0.03125 0.109375l0 8.734375l3.625 0q0.078125 0 0.125 0.046875q0.046875 0.03125 0.078125 0.09375q0.046875 0.0625 0.0625 0.171875q0.015625 0.109375 0.015625 0.265625zm13.5625 -4.578125q0 1.21875 -0.296875 2.203125q-0.28125 0.984375 -0.859375 1.6875q-0.5625 0.6875 -1.4375 1.0625q-0.859375 0.375 -2.015625 0.375q-1.140625 0 -1.984375 -0.34375q-0.828125 -0.34375 -1.375 -0.984375q-0.53125 -0.65625 -0.796875 -1.609375q-0.265625 -0.96875 -0.265625 -2.21875q0 -1.203125 0.28125 -2.171875q0.296875 -0.984375 0.875 -1.65625q0.578125 -0.6875 1.4375 -1.0625q0.875 -0.375 2.03125 -0.375q1.109375 0 1.9375 0.34375q0.828125 0.328125 1.375 0.984375q0.5625 0.640625 0.828125 1.59375q0.265625 0.9375 0.265625 2.171875zm-1.40625 0.09375q0 -0.859375 -0.15625 -1.59375q-0.15625 -0.75 -0.515625 -1.28125q-0.34375 -0.546875 -0.9375 -0.84375q-0.59375 -0.3125 -1.46875 -0.3125q-0.875 0 -1.46875 0.328125q-0.59375 0.328125 -0.96875 0.875q-0.375 0.546875 -0.53125 1.28125q-0.15625 0.71875 -0.15625 1.53125q0 0.890625 0.140625 1.640625q0.15625 0.75 0.5 1.296875q0.359375 0.53125 0.9375 0.84375q0.59375 0.296875 1.484375 0.296875q0.890625 0 1.484375 -0.328125q0.609375 -0.328125 0.96875 -0.890625q0.375 -0.5625 0.53125 -1.296875q0.15625 -0.734375 0.15625 -1.546875zm14.7578125 1.34375q0 0.921875 -0.28125 1.640625q-0.265625 0.71875 -0.765625 1.21875q-0.5 0.5 -1.21875 0.765625q-0.71875 0.265625 -1.625 0.265625q-0.84375 0 -1.53125 -0.25q-0.6875 -0.25 -1.1875 -0.71875q-0.484375 -0.46875 -0.75 -1.171875q-0.265625 -0.71875 -0.265625 -1.65625l0 -6.265625q0 -0.0625 0.03125 -0.109375q0.03125 -0.046875 0.109375 -0.078125q0.078125 -0.03125 0.203125 -0.046875q0.125 -0.015625 0.328125 -0.015625q0.1875 0 0.3125 0.015625q0.140625 0.015625 0.21875 0.046875q0.078125 0.03125 0.109375 0.078125q0.03125 0.046875 0.03125 0.109375l0 6.109375q0 0.703125 0.171875 1.234375q0.171875 0.515625 0.484375 0.859375q0.328125 0.34375 0.78125 0.53125q0.46875 0.171875 1.03125 0.171875q0.59375 0 1.046875 -0.171875q0.453125 -0.171875 0.765625 -0.515625q0.328125 -0.34375 0.484375 -0.84375q0.171875 -0.515625 0.171875 -1.203125l0 -6.171875q0 -0.0625 0.03125 -0.109375q0.03125 -0.046875 0.109375 -0.078125q0.078125 -0.03125 0.203125 -0.046875q0.140625 -0.015625 0.328125 -0.015625q0.1875 0 0.3125 0.015625q0.140625 0.015625 0.203125 0.046875q0.078125 0.03125 0.109375 0.078125q0.046875 0.046875 0.046875 0.109375l0 6.171875zm13.9140625 3.171875q0 0.15625 -0.046875 0.265625q-0.046875 0.109375 -0.140625 0.1875q-0.078125 0.0625 -0.1875 0.109375q-0.09375 0.03125 -0.1875 0.03125l-0.4375 0q-0.203125 0 -0.359375 -0.046875q-0.140625 -0.046875 -0.28125 -0.15625q-0.140625 -0.125 -0.28125 -0.3125q-0.125 -0.203125 -0.296875 -0.5l-3.1875 -5.75q-0.25 -0.453125 -0.5 -0.9375q-0.25 -0.484375 -0.46875 -0.953125l-0.015625 0q0.015625 0.5625 0.015625 1.15625q0.015625 0.578125 0.015625 1.15625l0 6.109375q0 0.046875 -0.03125 0.109375q-0.03125 0.046875 -0.109375 0.078125q-0.078125 0.03125 -0.203125 0.046875q-0.109375 0.015625 -0.296875 0.015625q-0.1875 0 -0.3125 -0.015625q-0.125 -0.015625 -0.203125 -0.046875q-0.0625 -0.03125 -0.09375 -0.078125q-0.03125 -0.0625 -0.03125 -0.109375l0 -9.328125q0 -0.3125 0.171875 -0.4375q0.171875 -0.140625 0.375 -0.140625l0.640625 0q0.234375 0 0.375 0.046875q0.15625 0.03125 0.28125 0.125q0.125 0.078125 0.234375 0.25q0.109375 0.15625 0.25 0.390625l2.453125 4.4375q0.21875 0.40625 0.421875 0.796875q0.21875 0.390625 0.40625 0.765625q0.203125 0.375 0.390625 0.734375q0.203125 0.359375 0.390625 0.734375l0 0q-0.015625 -0.625 -0.015625 -1.28125q0 -0.671875 0 -1.296875l0 -5.484375q0 -0.046875 0.03125 -0.09375q0.03125 -0.046875 0.09375 -0.078125q0.078125 -0.046875 0.203125 -0.0625q0.125 -0.015625 0.3125 -0.015625q0.171875 0 0.296875 0.015625q0.125 0.015625 0.1875 0.0625q0.078125 0.03125 0.109375 0.078125q0.03125 0.046875 0.03125 0.09375l0 9.328125zm13.8984375 -8.171875q0 0.140625 -0.015625 0.265625q-0.015625 0.109375 -0.046875 0.1875q-0.03125 0.0625 -0.078125 0.09375q-0.046875 0.03125 -0.09375 0.03125q-0.09375 0 -0.3125 -0.140625q-0.21875 -0.15625 -0.59375 -0.328125q-0.359375 -0.1875 -0.875 -0.328125q-0.515625 -0.15625 -1.21875 -0.15625q-0.828125 0 -1.5 0.3125q-0.65625 0.296875 -1.125 0.84375q-0.453125 0.53125 -0.703125 1.28125q-0.25 0.734375 -0.25 1.609375q0 0.96875 0.265625 1.71875q0.28125 0.75 0.75 1.265625q0.484375 0.515625 1.140625 0.78125q0.65625 0.265625 1.453125 0.265625q0.46875 0 0.9375 -0.109375q0.484375 -0.125 0.90625 -0.34375l0 -2.953125l-2.34375 0q-0.140625 0 -0.203125 -0.125q-0.0625 -0.140625 -0.0625 -0.421875q0 -0.140625 0.015625 -0.25q0.015625 -0.109375 0.046875 -0.171875q0.03125 -0.0625 0.078125 -0.09375q0.046875 -0.03125 0.125 -0.03125l3.203125 0q0.09375 0 0.171875 0.03125q0.09375 0.03125 0.15625 0.09375q0.078125 0.0625 0.109375 0.171875q0.046875 0.109375 0.046875 0.25l0 3.84375q0 0.203125 -0.078125 0.359375q-0.0625 0.140625 -0.296875 0.265625q-0.21875 0.109375 -0.578125 0.25q-0.359375 0.125 -0.75 0.21875q-0.375 0.09375 -0.765625 0.140625q-0.390625 0.046875 -0.78125 0.046875q-1.171875 0 -2.09375 -0.359375q-0.921875 -0.375 -1.5625 -1.046875q-0.625 -0.671875 -0.96875 -1.609375q-0.328125 -0.9375 -0.328125 -2.09375q0 -1.203125 0.359375 -2.171875q0.359375 -0.984375 1.015625 -1.671875q0.671875 -0.6875 1.59375 -1.0625q0.921875 -0.375 2.046875 -0.375q0.578125 0 1.078125 0.109375q0.515625 0.09375 0.90625 0.234375q0.40625 0.125 0.671875 0.296875q0.265625 0.15625 0.359375 0.265625q0.109375 0.09375 0.140625 0.234375q0.046875 0.125 0.046875 0.375zm11.7421875 8.171875q0 0.140625 -0.015625 0.25q-0.015625 0.109375 -0.0625 0.1875q-0.03125 0.0625 -0.078125 0.09375q-0.046875 0.03125 -0.109375 0.03125l-4.859375 0q-0.171875 0 -0.34375 -0.125q-0.15625 -0.125 -0.15625 -0.421875l0 -9.015625q0 -0.3125 0.15625 -0.421875q0.171875 -0.125 0.34375 -0.125l4.796875 0q0.0625 0 0.109375 0.03125q0.0625 0.03125 0.09375 0.109375q0.03125 0.0625 0.046875 0.171875q0.015625 0.09375 0.015625 0.25q0 0.140625 -0.015625 0.25q-0.015625 0.109375 -0.046875 0.171875q-0.03125 0.0625 -0.09375 0.09375q-0.046875 0.03125 -0.109375 0.03125l-3.953125 0l0 3.171875l3.390625 0q0.0625 0 0.109375 0.046875q0.0625 0.03125 0.09375 0.09375q0.03125 0.0625 0.046875 0.171875q0.015625 0.109375 0.015625 0.25q0 0.140625 -0.015625 0.25q-0.015625 0.09375 -0.046875 0.15625q-0.03125 0.0625 -0.09375 0.09375q-0.046875 0.03125 -0.109375 0.03125l-3.390625 0l0 3.609375l4.015625 0q0.0625 0 0.109375 0.03125q0.046875 0.03125 0.078125 0.109375q0.046875 0.0625 0.0625 0.171875q0.015625 0.09375 0.015625 0.25z" fill-rule="nonzero"/><path fill="#000000" fill-opacity="0.0" d="m258.91602 191.49344l-1.1968689 49.70079" fill-rule="evenodd"/><path stroke="#000000" stroke-width="1.0" stroke-linejoin="round" stroke-linecap="butt" d="m258.91602 191.49344l-1.1968689 49.70079" fill-rule="evenodd"/></g></svg>